<?xml version="1.0" encoding="utf-8"?>
<!-- Generator: Adobe Illustrator 27.7.0, SVG Export Plug-In . SVG Version: 6.00 Build 0)  -->
<svg version="1.1" id="Layer_1" xmlns="http://www.w3.org/2000/svg" xmlns:xlink="http://www.w3.org/1999/xlink" x="0px" y="0px"
	 viewBox="0 0 1985 933" style="enable-background:new 0 0 1985 933;" xml:space="preserve">
<style type="text/css">
	.st0{fill:url(#SVGID_1_);}
	.st1{fill:url(#SVGID_00000062881096705985236160000005422878675708916356_);}
	.st2{fill:url(#SVGID_00000086660905570547174620000000188591184901840035_);}
	.st3{opacity:0.3;fill:#120530;enable-background:new    ;}
	.st4{fill:#120530;}
	.st5{fill:#7A1CCA;}
</style>
<g>
	<g>
		
			<linearGradient id="SVGID_1_" gradientUnits="userSpaceOnUse" x1="1033.4309" y1="5156.3604" x2="1277.0699" y2="4866.0015" gradientTransform="matrix(1 0 0 1 0 -4374.9502)">
			<stop  offset="0" style="stop-color:#FF4D7D"/>
			<stop  offset="0.13" style="stop-color:#FF537A"/>
			<stop  offset="0.31" style="stop-color:#FE6570"/>
			<stop  offset="0.52" style="stop-color:#FD8161"/>
			<stop  offset="0.75" style="stop-color:#FBA94B"/>
			<stop  offset="0.99" style="stop-color:#F9DC30"/>
			<stop  offset="1" style="stop-color:#F9DE2F"/>
		</linearGradient>
		<polygon class="st0" points="1285.5,555.1 1265.2,587.2 1256.5,601 1219.8,659 1220.9,659 1157,761.6 1009.8,761.6 1107.5,607.1 
			1111.4,601 1111.5,601 1194,470.6 1214.3,438.4 1218.8,445.7 1218.8,445.7 		"/>
		
			<linearGradient id="SVGID_00000097482092886543566190000008145719858406199218_" gradientUnits="userSpaceOnUse" x1="1576.5103" y1="4523.2695" x2="1334.1705" y2="4812.0791" gradientTransform="matrix(1 0 0 1 0 -4374.9502)">
			<stop  offset="0" style="stop-color:#B040AE"/>
			<stop  offset="0.22" style="stop-color:#A53CB3"/>
			<stop  offset="0.59" style="stop-color:#8831C0"/>
			<stop  offset="1" style="stop-color:#6222D1"/>
		</linearGradient>
		<polygon style="fill:url(#SVGID_00000097482092886543566190000008145719858406199218_);" points="1600.3,168.3 1502.5,322.6 
			1498.6,328.8 1498.5,328.8 1417.1,457.6 1396.8,489.7 1325.6,373.1 1345.9,341 1353.5,328.8 1390.2,270.8 1453,168.3 		"/>
		
			<linearGradient id="SVGID_00000059284512047086532450000007218198121965786787_" gradientUnits="userSpaceOnUse" x1="1171.5778" y1="4680.4795" x2="1437.5273" y2="4997.4292" gradientTransform="matrix(1 0 0 1 0 -4374.9502)">
			<stop  offset="0" style="stop-color:#E10FBA"/>
			<stop  offset="0.29" style="stop-color:#E80BA5"/>
			<stop  offset="0.88" style="stop-color:#FB0270"/>
			<stop  offset="1" style="stop-color:#FF0064"/>
		</linearGradient>
		<polyline style="fill:url(#SVGID_00000059284512047086532450000007218198121965786787_);" points="1372.3,601 1311.9,601 
			1311.4,600.1 1311.4,600.1 1144.8,328 1298,328 1325.6,373.1 1396.8,489.7 1449,575.3 1464.2,600.1 		"/>
		<polygon class="st3" points="1284.7,556.4 1264.2,588.7 1259.7,581.4 1193,472.1 1213.3,439.9 1217.8,447.2 1217.8,447.2 		"/>
		<polygon class="st3" points="1417.1,457.6 1396.8,489.7 1325.6,373.1 1345.9,341 1350.4,348.3 		"/>
	</g>
	<path class="st4" d="M333.7,614.6c-20.7-8.9-37.1-21-49.1-36.5s-18.7-33-20.1-52.5h99.2c1.4,9.4,5.7,16.7,13,21.9
		s16.3,7.8,27.1,7.8c8.4,0,15-1.7,19.8-5.2c4.9-3.5,7.3-8,7.3-13.6c0-7.3-4-12.7-12-16.2s-21.2-7.3-39.7-11.5
		c-20.9-4.2-38.3-8.9-52.2-14.1c-13.9-5.2-26-13.7-36.3-25.6c-10.3-11.8-15.4-27.8-15.4-48c0-17.4,4.7-33.1,14.1-47.2
		s23.2-25.3,41.5-33.7c18.3-8.3,40.3-12.5,66-12.5c38.3,0,68.4,9.4,90.3,28.2c21.9,18.8,34.6,43.5,38.1,74.1h-92.4
		c-1.7-9.4-5.8-16.6-12.3-21.7c-6.4-5-15.1-7.6-25.8-7.6c-8.4,0-14.7,1.6-19,4.7c-4.4,3.1-6.5,7.5-6.5,13c0,7,4,12.3,12,15.9
		c8,3.7,20.9,7.4,38.6,11.2c21.2,4.5,38.9,9.6,53,15.1c14.1,5.6,26.4,14.5,37.1,26.9c10.6,12.4,15.9,29.1,15.9,50.4
		c0,17.1-5,32.4-14.9,45.9c-9.9,13.6-24,24.3-42.3,32.1s-39.8,11.7-64.5,11.7C377.9,627.9,354.4,623.5,333.7,614.6z"/>
	<path class="st4" d="M696.6,339.8c14.6-8,31.8-12,51.7-12c23.3,0,44.4,6.1,63.4,18.3c19,12.2,33.9,29.6,44.9,52.2
		s16.4,49.1,16.4,79.3s-5.5,56.8-16.4,79.6c-11,22.8-25.9,40.3-44.9,52.5S771.6,628,748.3,628c-19.8,0-37-4-51.4-12
		s-25.8-18.8-34.2-32.4v180.6H560.4V331.5h102.3v40.7C670.7,358.6,682,347.8,696.6,339.8z M753.8,433
		c-10.3-10.6-22.9-15.9-37.8-15.9s-27.6,5.4-37.8,16.2c-10.3,10.8-15.4,25.6-15.4,44.4s5.1,34.1,15.4,44.9
		c10.3,10.8,22.9,16.2,37.8,16.2s27.6-5.5,37.8-16.4c10.3-11,15.4-25.8,15.4-44.6S764,443.6,753.8,433L753.8,433z"/>
	<path class="st4" d="M1051.9,343.5c16.3-9.7,33.9-14.6,52.7-14.6V438h-28.7c-22.3,0-38.8,4.4-49.6,13
		c-10.8,8.7-16.2,23.8-16.2,45.4v127.9H907.8V331.5h102.3v51.7C1021.6,366.4,1035.5,353.2,1051.9,343.5L1051.9,343.5z"/>
</g>
<g>
	<path class="st5" d="M1337.3,683.3c4.3-7.8,10.3-13.8,18.1-18s16.6-6.3,26.6-6.3c12.8,0,23.6,3.5,32.4,10.5s14.4,16.8,16.9,29.4
		h-37.4c-2.2-6.6-6.4-9.9-12.6-9.9c-4.4,0-7.9,1.8-10.5,5.5c-2.6,3.7-3.9,9-3.9,16.1s1.3,12.5,3.9,16.2c2.6,3.7,6.1,5.6,10.5,5.6
		c6.4,0,10.6-3.3,12.6-9.9h37.4c-2.5,12.5-8.2,22.3-16.9,29.3s-19.6,10.6-32.4,10.6c-10,0-18.8-2.1-26.6-6.3s-13.8-10.2-18.1-18
		s-6.5-17-6.5-27.5S1333,691.1,1337.3,683.3L1337.3,683.3z"/>
	<path class="st5" d="M1607.8,670.9c7.3,7.7,10.9,18.2,10.9,31.5v58.9h-35.3v-54.2c0-5.4-1.5-9.6-4.5-12.6s-7.1-4.5-12.2-4.5
		s-9.2,1.5-12.2,4.5s-4.5,7.2-4.5,12.6v54.2h-35.3v-54.2c0-5.4-1.5-9.6-4.4-12.6c-2.9-3-7-4.5-12.2-4.5s-9.4,1.5-12.4,4.5
		s-4.5,7.2-4.5,12.6v54.2h-35.3v-101h35.3v13.3c3.1-4.3,7.2-7.8,12.2-10.3c5-2.6,10.7-3.9,17.2-3.9c7.4,0,14.1,1.6,19.9,4.9
		c5.8,3.2,10.4,7.8,13.8,13.7c3.6-5.5,8.3-10,14.2-13.4s12.4-5.1,19.4-5.1C1590.5,659.4,1600.5,663.2,1607.8,670.9L1607.8,670.9z"/>
	<path class="st5" d="M1656.6,757.9c-7.1-3.1-12.8-7.3-16.9-12.6c-4.1-5.3-6.4-11.4-6.9-18.1h34.2c0.5,3.2,2,5.8,4.5,7.6
		s5.6,2.7,9.4,2.7c2.9,0,5.2-0.6,6.8-1.8c1.7-1.2,2.5-2.8,2.5-4.7c0-2.5-1.4-4.4-4.1-5.6s-7.3-2.5-13.7-4c-7.2-1.4-13.2-3.1-18-4.9
		s-9-4.7-12.5-8.8s-5.3-9.6-5.3-16.6c0-6,1.6-11.4,4.9-16.3s8-8.7,14.3-11.6s13.9-4.3,22.8-4.3c13.2,0,23.6,3.2,31.1,9.7
		s11.9,15,13.1,25.6h-31.9c-0.6-3.2-2-5.7-4.2-7.5s-5.2-2.6-8.9-2.6c-2.9,0-5.1,0.5-6.6,1.6s-2.2,2.6-2.2,4.5c0,2.4,1.4,4.2,4.1,5.5
		s7.2,2.5,13.3,3.9c7.3,1.6,13.4,3.3,18.3,5.2s9.1,5,12.8,9.3s5.5,10,5.5,17.4c0,5.9-1.7,11.2-5.1,15.8c-3.4,4.7-8.3,8.4-14.6,11.1
		c-6.3,2.7-13.7,4-22.2,4C1671.8,762.5,1663.7,761,1656.6,757.9L1656.6,757.9z"/>
</g>
</svg>
